<?xml version="1.0" standalone="no"?>
<!DOCTYPE svg PUBLIC "-//W3C//DTD SVG 20010904//EN"
 "http://www.w3.org/TR/2001/REC-SVG-20010904/DTD/svg10.dtd">
<svg version="1.0" xmlns="http://www.w3.org/2000/svg"
 width="48.000000pt" height="48.000000pt" viewBox="0 0 48.000000 48.000000"
 preserveAspectRatio="xMidYMid meet">

<g transform="translate(0.000000,48.000000) scale(0.100000,-0.100000)"
fill="#000000" stroke="none">
<path d="M199 470 c-123 -22 -211 -149 -189 -270 29 -157 204 -240 342 -163
158 88 159 318 3 403 -56 31 -103 40 -156 30z m200 -177 c18 -21 22 -34 17
-62 -8 -51 -40 -74 -93 -68 -40 4 -41 4 -48 -29 -4 -26 -11 -34 -27 -34 -19 0
-20 4 -13 64 6 64 -7 99 -20 54 -12 -38 -36 -58 -70 -58 -55 0 -78 28 -83 99
-4 60 -4 61 21 61 25 0 26 -3 29 -57 3 -54 5 -58 28 -58 23 0 25 4 28 58 l3
57 39 0 c34 0 40 -3 40 -21 0 -20 1 -20 32 6 39 33 81 29 117 -12z"/>
<path d="M310 270 c-24 -24 -23 -48 3 -64 23 -15 51 3 55 37 5 38 -30 55 -58
27z"/>
</g>
</svg>
